<svg xmlns="http://www.w3.org/2000/svg" viewBox="0 0 385.34 57.93"><defs><style>.cls-1{fill:#a23e60}.cls-2{fill:#231815}.cls-4{fill:#e94820}.cls-6{fill:#e8ccae}.cls-7{fill:#fff}</style></defs><g id="レイヤー_2" data-name="レイヤー 2"><g id="デザイン"><path class="cls-1" d="M3.13 8.74a.39.39 0 0 0 .41.39c.53 0 3.53-2.06 5.08-4.54a.89.89 0 0 1 .75-.46.91.91 0 0 1 .88.88.87.87 0 0 1-.16.51 19 19 0 0 1-6.31 5.53 2 2 0 0 1-.89.21 1.37 1.37 0 0 1-1.41-1.54V3.77a.75.75 0 0 1 .78-.83.86.86 0 0 1 .9.84v.92c0 1.29 0 3.24-.07 4.07ZM17.71 7.69A4.6 4.6 0 0 0 16.07 7a.64.64 0 0 1-.58-.66.84.84 0 0 1 .87-.83 6.45 6.45 0 0 1 2.23.72.83.83 0 0 1 .47.74.89.89 0 0 1-.84.9 1 1 0 0 1-.51-.18Zm-.23 4.45a.87.87 0 0 1-.88-.88.86.86 0 0 1 .74-.84c2.78-.64 5.73-3.47 7.13-6.26a.85.85 0 0 1 .77-.5.83.83 0 0 1 .84.82 1.18 1.18 0 0 1-.17.58c-2.77 5.15-7.56 7.08-8.43 7.08Zm1.82-7a4.35 4.35 0 0 0-1.43-1 .66.66 0 0 1-.43-.62.81.81 0 0 1 .81-.8A5.27 5.27 0 0 1 20.51 4a.9.9 0 0 1 .32.66.88.88 0 0 1-.85.87.92.92 0 0 1-.68-.35ZM31.84 7.26a.77.77 0 0 1-.84-.77.83.83 0 0 1 .85-.84h8.77a.81.81 0 1 1 0 1.61ZM49.32 11.54a.92.92 0 0 1-.9 1 .81.81 0 0 1-.82-.88v-.06c.07-1.57.11-4.66.11-7.09v-2.6a.77.77 0 0 1 .83-.81.79.79 0 0 1 .84.8v3.17a8.27 8.27 0 0 1 3.51 1.2.88.88 0 0 1 .32.69.92.92 0 0 1-.84.94.87.87 0 0 1-.49-.18 8.54 8.54 0 0 0-2.52-1.1c-.07 1.91-.07 3.82-.04 4.92ZM61.65 2.61a5.3 5.3 0 0 0 .13-1.07.75.75 0 0 1 .8-.71c.05 0 .8 0 .8.7a3.4 3.4 0 0 1-.09.64 2.28 2.28 0 0 0 .35-.17.82.82 0 0 1 .41-.11.76.76 0 0 1 .74.74c0 .7-.92 1-2 1.21-.16.39-.38.82-.59 1.23h.28a2.15 2.15 0 0 1 1.94 1.17c.55-.28 1.11-.56 1.63-.78.32-.14.7-.31 1.08-.52a1.07 1.07 0 0 1 .53-.15.84.84 0 0 1 .83.85.8.8 0 0 1-.48.74 16.07 16.07 0 0 1-1.58.62c-.55.21-1.12.45-1.64.7a6.44 6.44 0 0 1 0 .77v.68a.92.92 0 0 1-.86 1 .75.75 0 0 1-.72-.84V8.51c-.94.62-1.5 1.06-1.5 1.62 0 .22.18.84 1.37.84a6.48 6.48 0 0 0 1.74-.3 1.83 1.83 0 0 1 .42-.07.82.82 0 0 1 .88.8c0 .83-1 1.16-2.66 1.16-2.56 0-3.29-1.44-3.29-2.2C60.21 9.17 61.35 8 63.05 7a.92.92 0 0 0-.85-.68 1.85 1.85 0 0 0-1.29.78.52.52 0 0 1-.11.1 1.38 1.38 0 0 1-1 .56.68.68 0 0 1-.73-.62.94.94 0 0 1 .37-.67 6.57 6.57 0 0 0 1.66-2.3 4.55 4.55 0 0 1-.61 0c-1.23 0-1.57-.68-1.57-1a.69.69 0 0 1 .71-.71 1.07 1.07 0 0 1 .59.19.87.87 0 0 0 .46.1 4.59 4.59 0 0 0 .82-.1ZM84.6 9.51l-3.82-.1A14.13 14.13 0 0 0 85 11.14a.62.62 0 0 1 .49.63.84.84 0 0 1-.8.84 13.53 13.53 0 0 1-4.49-2.29v2a.66.66 0 0 1-.74.6c-.38 0-.74-.19-.74-.6v-2a13.92 13.92 0 0 1-4.51 2.31.77.77 0 0 1-.78-.74.68.68 0 0 1 .56-.63 12 12 0 0 0 4.12-1.91l-3.73.1a.61.61 0 0 1-.64-.63.64.64 0 0 1 .67-.67h4.33V8a.65.65 0 0 1 .08-.35h-1.56c-1.47 0-2.13-.06-2.13-1.81V4.27c-.38.38-.63.62-1 .62a.76.76 0 0 1-.75-.71.66.66 0 0 1 .34-.56 9 9 0 0 0 2.6-2.86.66.66 0 0 1 .59-.4.84.84 0 0 1 .83.76.63.63 0 0 1-.16.39l-.22.27H79c.17-.28.39-.67.59-1.08a.59.59 0 0 1 .58-.34c.4 0 .83.28.83.66 0 .17-.08.31-.38.76h3.28a.53.53 0 0 1 .49.58.52.52 0 0 1-.52.56H80.4v.58h2.7a.43.43 0 0 1 .43.46.42.42 0 0 1-.43.44h-2.7V5h2.7a.44.44 0 0 1 .45.45.44.44 0 0 1-.45.45h-2.7v.66h3.69a.51.51 0 0 1 .5.54.53.53 0 0 1-.52.58h-4a.65.65 0 0 1 .13.32v.24h4.4a.65.65 0 1 1 0 1.3ZM79 4.4h-2.5V5H79Zm0 1.47h-2.5V6a.5.5 0 0 0 .53.52h2Zm0-3h-2c-.37 0-.46.19-.48.36s0 .14 0 .21H79ZM95.72 7.9a.63.63 0 0 1 .28.52.81.81 0 0 1-.76.8.85.85 0 0 1-.46-.16l-.46.55a2.86 2.86 0 0 1-2 1.13c-1.06 0-1.76-1.09-1.76-2.42A4.76 4.76 0 0 1 92.13 5a14.54 14.54 0 0 1-.55-2.34.72.72 0 0 1 .75-.74.87.87 0 0 1 .89.85 7.85 7.85 0 0 0 .17 1.31l.17-.08a6.07 6.07 0 0 1 2.32-.59A9 9 0 0 0 96 2a.7.7 0 0 1 .73-.76.86.86 0 0 1 .87.9 6.59 6.59 0 0 1-.17 1.45 3.71 3.71 0 0 1 2.94 3.74c0 3-3.46 4.36-4 4.36a.86.86 0 0 1-.91-.8c0-.29.21-.6.73-.77 2-.61 2.62-1.78 2.62-2.84a2.51 2.51 0 0 0-1.71-2.45 14.06 14.06 0 0 1-1.49 3.06Zm-3.09-1.55a3.13 3.13 0 0 0-.63 1.8c0 .68.24 1 .54 1s.84-.59 1.21-1.06a7.88 7.88 0 0 1-1.12-1.74Zm3-1.71a3.91 3.91 0 0 0-1.86.68 5.63 5.63 0 0 0 .84 1.5 9.58 9.58 0 0 0 1-2.09ZM111 2.76a15.09 15.09 0 0 1 3.91-.76.94.94 0 0 1 1 .94c0 .5-.31.81-1.21.81a2 2 0 0 1-.32 0h-.19a5.62 5.62 0 0 0-1.85.4 3.79 3.79 0 0 0-2.24 3.36 2.83 2.83 0 0 0 3 2.9h.15c.92 0 1.3.49 1.3.92s-.38.87-1.2.87a4.48 4.48 0 0 1-4.79-4.48 5 5 0 0 1 .92-2.87.72.72 0 0 0 .13-.21s0-.05-.06-.05a.67.67 0 0 0-.19.05 9.11 9.11 0 0 0-1.53.68 4.35 4.35 0 0 1-1.56.48.9.9 0 0 1-.93-.93.87.87 0 0 1 .75-.86c.68-.19 2.69-.62 4.91-1.25ZM131.14 6.64c0-.38 0-.56-.81-.57h-3.84c-3.78 0-3.83 0-3.87.46V7c0 .39-.36.59-.74.59-.79 0-.79-.56-.79-1v-.47c0-.51.49-1 1.67-1h8.33c.85 0 1.58.45 1.61 1.06v.44c0 .32 0 .82-.84.82-.39 0-.75-.17-.75-.52Zm-9.22-4.3a.59.59 0 0 1-.67-.56.59.59 0 0 1 .67-.55h4.2V.81a.84.84 0 0 1 1.67 0v.42H132a.57.57 0 0 1 .64.55.58.58 0 0 1-.64.56Zm8.29 5h-1a5.46 5.46 0 0 0 .35 1.24 13.15 13.15 0 0 0 1.64-1 .63.63 0 0 1 .39-.13.73.73 0 0 1 .71.67.64.64 0 0 1-.36.55 11.26 11.26 0 0 1-1.82.85 4.16 4.16 0 0 0 2.19 1.48.65.65 0 0 1 .54.63.79.79 0 0 1-.8.76 1 1 0 0 1-.32-.06c-2.26-.71-3.52-3.3-3.74-5h-.91l-.33.18a3.46 3.46 0 0 1 1.71 2.88 2.41 2.41 0 0 1-2.63 2.45c-.48 0-1.25 0-1.25-.7a.59.59 0 0 1 .61-.61h.14a2.64 2.64 0 0 0 .51.06 1.18 1.18 0 0 0 1.22-1.32 12.09 12.09 0 0 1-5.17 2.14.57.57 0 0 1-.64-.54.53.53 0 0 1 .5-.52 11.77 11.77 0 0 0 5.09-2 2.6 2.6 0 0 0-.21-.36 12.17 12.17 0 0 1-4.65 1.8.52.52 0 0 1-.58-.48.56.56 0 0 1 .52-.53A11 11 0 0 0 126 8.33a2.16 2.16 0 0 0-.3-.18h-.09a11.6 11.6 0 0 1-3.47 1c-.44 0-.65-.25-.65-.52a.56.56 0 0 1 .54-.52 13.18 13.18 0 0 0 3.27-.71h-1.68a.5.5 0 0 1-.56-.46.51.51 0 0 1 .57-.49h6.61a.5.5 0 0 1 .54.48.49.49 0 0 1-.52.47Zm-3.13-2.66c-3.7 0-4.12 0-4.12-1s.38-1 4.12-1c3.5 0 3.93 0 3.93 1s-.56 1.04-3.93 1.04Zm2.36-1.15s-.11-.08-.38-.08h-4.18c-.38 0-.4 0-.4.22s.12.25.42.25h4.18c.42 0 .39 0 .39-.25a.29.29 0 0 0-.03-.1ZM144.42 10.87v1.23a.72.72 0 0 1-.76.74.71.71 0 0 1-.73-.74v-1.23h-4.15a.63.63 0 0 1-.64-.66.62.62 0 0 1 .64-.66h4.15v-.63h-3.77a.62.62 0 0 1 0-1.24h1.16v-.89h-2.2a.58.58 0 0 1-.6-.62.58.58 0 0 1 .6-.6h2.2v-.84h-1.18a.58.58 0 0 1-.58-.62.57.57 0 0 1 .58-.61h9.12a.57.57 0 0 1 .6.61.58.58 0 0 1-.6.62h-1.19v.87h2.29a.61.61 0 0 1 0 1.22h-2.29v.91h1.19a.62.62 0 0 1 0 1.24h-3.88v.69h4.25a.62.62 0 0 1 .64.66.63.63 0 0 1-.64.66Zm1.75-8.24v.19a.75.75 0 0 1-1.48 0v-.19h-2v.19a.67.67 0 0 1-.75.61.66.66 0 0 1-.73-.61v-.19h-2.8a.67.67 0 0 1-.71-.63.66.66 0 0 1 .71-.66h2.8V.8a.67.67 0 0 1 .79-.62.66.66 0 0 1 .73.62v.53h2V.8a.67.67 0 0 1 .74-.62.66.66 0 0 1 .74.62v.53h2.89a.65.65 0 0 1 .7.66.65.65 0 0 1-.7.67ZM143 4.73h-1.3v.87h1.3Zm0 2.06h-1.3v.93h1.3Zm2.8-2.06h-1.39v.87h1.37Zm0 2.06h-1.37v.93h1.37ZM155 6.46a.6.6 0 0 1-.66-.6.65.65 0 0 1 .66-.66h4.76V5a.73.73 0 0 1 .06-.3h-1.84c-1.58-.05-1.59-.92-1.59-2.1s0-2 1.55-2.06c.74 0 1.68-.05 2.66-.05s2 0 2.83.05a1.36 1.36 0 0 1 1.43 1.24v.71c0 1.3-.08 2.14-1.54 2.21h-2a.6.6 0 0 1 .07.3v.18h4.75a.6.6 0 0 1 .63.63.61.61 0 0 1-.63.63Zm5 3.54c-3.13 0-3.32-.19-3.32-1.54 0-1.06.24-1.43 1.47-1.45C159 7 160 7 161 7c3 0 3.51 0 3.51 1.52 0 1.31-.38 1.5-3 1.5v1.12c0 .9-.56 1.64-2 1.64-.82 0-1.54-.07-1.54-.78a.65.65 0 0 1 .16-.44 7.09 7.09 0 0 1-2.77 1.08.82.82 0 0 1-.88-.78.67.67 0 0 1 .6-.65 7.49 7.49 0 0 0 2.63-1 .69.69 0 0 1 .35-.1.79.79 0 0 1 .78.73.64.64 0 0 1-.34.53l-.11.07a.86.86 0 0 1 .17 0h.13c.23 0 .45.07.65.07.38 0 .66-.14.66-.75Zm-2.24-6.89v.21c0 .27.14.35.62.37h4.4c.35 0 .53-.14.54-.38v-.2Zm5.59-.91v-.17c0-.39-.1-.43-2.55-.43-2.79 0-3 0-3 .47v.13ZM163 8.45a1.62 1.62 0 0 0 0-.2c0-.08-.1-.18-.38-.18h-2.23c-2.18 0-2.18 0-2.18.39 0 .21 0 .41.43.41h2.31c1.85 0 2 0 2.05-.22a1 1 0 0 0 0-.2Zm2.39 4.05a.91.91 0 0 1-.54-.19 5.76 5.76 0 0 0-2.06-.92c-.42-.09-.61-.35-.61-.62a.75.75 0 0 1 .82-.7c.17 0 3.23.52 3.23 1.61a.85.85 0 0 1-.85.82ZM174.34 12.47c-1.57 0-2.69 0-2.75-1.43V8.05A1.34 1.34 0 0 1 173 6.72h2.46a1.38 1.38 0 0 1 1.4 1.28v3c-.01 1.38-1.28 1.47-2.52 1.47Zm1.09-2.86V8.39c0-.42-.33-.43-1.1-.43-.94 0-1.25 0-1.28.43v2.24c0 .41.3.49 1.21.49s1.16-.11 1.19-.53c-.02-.21-.02-.59-.02-.98Zm3.81-3.71h-3.75c-1.09 0-1.65-.53-1.71-1.38v-2.3a1.53 1.53 0 0 1 1.64-1.41h3.92a1.44 1.44 0 0 1 1.55 1.28c0 .35.05.78.05 1.22s0 .85-.05 1.2a1.53 1.53 0 0 1-1.65 1.39Zm.17-2.41v-.87c0-.52-.32-.53-1.75-.53h-1.77c-.6 0-.64.49-.64 1.21v.75c.06.56.21.56 2.22.56h1.31c.6-.03.63-.44.63-1.12Zm1.11 9c-1.52 0-2.69 0-2.75-1.41V8.14a1.38 1.38 0 0 1 1.46-1.38h2.4a1.4 1.4 0 0 1 1.5 1.24c0 .47.05 1.26.05 2 0 1.86-.09 2.45-2.66 2.45Zm1.19-2.69V8.46c0-.45-.32-.46-1.23-.46s-1.2 0-1.22.51v2.16c0 .44.31.49 1.25.49 1.18-.04 1.2-.16 1.2-1.4ZM191.29 2.61a5.3 5.3 0 0 0 .13-1.07.75.75 0 0 1 .8-.71c.05 0 .8 0 .8.7a3.4 3.4 0 0 1-.09.64 2.28 2.28 0 0 0 .35-.17.82.82 0 0 1 .41-.11.76.76 0 0 1 .74.74c0 .7-.92 1-2 1.21-.16.39-.38.82-.59 1.23h.28A2.15 2.15 0 0 1 194 6.23c.55-.28 1.11-.56 1.63-.78.32-.14.7-.31 1.08-.52a1.07 1.07 0 0 1 .53-.15.84.84 0 0 1 .83.85.8.8 0 0 1-.48.74 16.07 16.07 0 0 1-1.54.59c-.55.21-1.12.45-1.64.7a6.44 6.44 0 0 1 0 .77v.68a.92.92 0 0 1-.86 1 .75.75 0 0 1-.72-.84V8.47c-.94.62-1.5 1.06-1.5 1.62 0 .22.18.84 1.37.84a6.48 6.48 0 0 0 1.74-.3 1.67 1.67 0 0 1 .42-.07.82.82 0 0 1 .88.8c0 .83-1 1.16-2.66 1.16-2.56 0-3.29-1.44-3.29-2.2.06-1.15 1.21-2.32 2.9-3.32a.92.92 0 0 0-.85-.68 1.83 1.83 0 0 0-1.29.78.52.52 0 0 1-.11.1 1.38 1.38 0 0 1-1 .56.68.68 0 0 1-.73-.62.94.94 0 0 1 .37-.67 6.57 6.57 0 0 0 1.66-2.3 4.55 4.55 0 0 1-.61 0c-1.23 0-1.57-.68-1.57-1a.69.69 0 0 1 .71-.71 1.07 1.07 0 0 1 .59.19.87.87 0 0 0 .46.1 4.48 4.48 0 0 0 .82-.1ZM208.71 4.75a.64.64 0 0 1 .67-.51.8.8 0 0 1 .84.61A3.2 3.2 0 0 1 213.11 8c0 2.94-3.32 4.5-4.3 4.5-.52 0-.8-.31-.8-.66a1 1 0 0 1 .81-.9c1.82-.6 2.66-1.82 2.66-2.88a2 2 0 0 0-1.55-1.92 8.8 8.8 0 0 1-2.37 3.39l.1.17a.82.82 0 0 1 .14.46.85.85 0 0 1-.8.84.79.79 0 0 1-.69-.45c-1.41 1-2 1.11-2.31 1.11-.67 0-1.32-.42-1.32-1.61 0-.27 0-2.75 3.11-4.41 0-.49.09-1 .14-1.49h-.31c-1.16 0-1.89-.18-1.89-.89a.72.72 0 0 1 .72-.76 1.25 1.25 0 0 1 .29.06 3.73 3.73 0 0 0 1 .12h.36l.17-1.12a.85.85 0 0 1 .83-.8.69.69 0 0 1 .73.69s-.11.71-.17 1A12.47 12.47 0 0 0 209.4 2a.76.76 0 0 1 1 .67c0 .3-.19.59-.68.76a18.67 18.67 0 0 1-2.34.6l-.14 1a6 6 0 0 1 1.34-.28Zm-3 2.67v-.26a3.6 3.6 0 0 0-1.61 2.49c0 .27.13.37.28.37a4.38 4.38 0 0 0 1.47-.82 9.74 9.74 0 0 1-.14-1.78Zm1.4-1v.83a7.58 7.58 0 0 0 0 .84 6.12 6.12 0 0 0 1.29-2 5.59 5.59 0 0 0-1.29.31ZM223.3 2.76a15.09 15.09 0 0 1 3.89-.76.94.94 0 0 1 1 .94c0 .5-.31.81-1.21.81a2 2 0 0 1-.32 0h-.19a5.62 5.62 0 0 0-1.85.4 3.79 3.79 0 0 0-2.24 3.36 2.83 2.83 0 0 0 3 2.9h.15c.92 0 1.3.49 1.3.92s-.38.87-1.2.87a4.48 4.48 0 0 1-4.79-4.48 5 5 0 0 1 .92-2.87.72.72 0 0 0 .13-.21s0-.05-.06-.05l-.2.05a9.36 9.36 0 0 0-1.52.68 4.35 4.35 0 0 1-1.56.48.9.9 0 0 1-.93-.93.87.87 0 0 1 .75-.86c.68-.19 2.69-.62 4.93-1.25ZM235.11 12.31c-1.2 0-2.52-.75-2.52-1.9 0-.9.88-1.81 2.9-1.81a8 8 0 0 1 1.08.08v-.74c-.16-2.67-.31-3.95-.31-5.8 0-.33 0-1.08.85-1.08a.79.79 0 0 1 .84.77v1.95a2.64 2.64 0 0 0 1.34-.33 1 1 0 0 1 .49-.14.94.94 0 0 1 .94.88c0 1.1-2.6 1.12-2.73 1.12 0 1.15.09 3.08.09 3.31V9c2.2.74 2.29 1.65 2.29 1.91a.89.89 0 0 1-.82.94 1.13 1.13 0 0 1-.79-.4 4 4 0 0 0-.94-.77 3 3 0 0 1-2.71 1.63Zm.14-2.39c-.07 0-1.16 0-1.16.45 0 .26.39.5 1 .5a1.3 1.3 0 0 0 1.29-.78 3.77 3.77 0 0 0-1.13-.17ZM249.23 13a.85.85 0 0 1-.87-.8.79.79 0 0 1 .36-.63 6 6 0 0 0 2.8-4.62c0-.39-.08-1.95-1.33-1.95a1.94 1.94 0 0 0-1.05.34 4.65 4.65 0 0 1-1.68.7.82.82 0 0 1-.87-.83.94.94 0 0 1 .69-.88c.36-.13.78-.27 1.16-.43a4.42 4.42 0 0 1 1.75-.37c1.91 0 3 1.22 3 3.35a7.71 7.71 0 0 1-3.31 5.9 1.1 1.1 0 0 1-.65.22Zm2-10.24a7.78 7.78 0 0 1-2.79-1 .78.78 0 0 1-.42-.66.75.75 0 0 1 .8-.72 1.19 1.19 0 0 1 .5.11 8.64 8.64 0 0 0 2.09.59c.53.1.74.42.74.74a.91.91 0 0 1-.92.91ZM261.48 12.37a1.09 1.09 0 0 1-1.07-1 1.08 1.08 0 0 1 1.08-1.08 1 1 0 0 1 1.05 1.06 1 1 0 0 1-1.06 1.02Zm-.68-3.78c0-1.25-.18-4.58-.26-7v-.04a.86.86 0 0 1 .92-.86.9.9 0 0 1 1 .91c0 1.64-.26 5.54-.26 6.87v.2a.72.72 0 0 1-.69.8.68.68 0 0 1-.66-.74Z"/><path class="cls-2" d="M3.37 35.15a54 54 0 0 0 3.2 12.61c.75-.12 1.49-.24 3-.44-1.18 2.75-2.33 4.1-3.11 4.18s-1.4-.67-2.15-1.6C2.52 47.55.52 39.38 0 34.79v-.21h3.3Zm13.21 2.38a40.41 40.41 0 0 0 6 3.95 4.47 4.47 0 0 1-2.32.83 8.19 8.19 0 0 1-6.11-1.93ZM34.57 51.64v-6l-.26.1c-2.49 1.07-4.87 2.38-7 3.44l2.08-11.33h-3.48v-1.11l6.62-.06-1.78 8.82a39 39 0 0 1 3.78-1.83l-.11-15.34h3l.14 14.34a18.38 18.38 0 0 1 5.32-.83c6.22-.06 9.76 3.34 9.79 6.52 0 2.37-1.92 4.49-5.93 4.53h-.68c2.35-1.49 3.33-3.18 3.32-4.68 0-2.5-2.84-4.55-7-4.51a16.63 16.63 0 0 0-4.86.83l.07 7.12ZM76.07 32.6c-7.73 5.35-10.18 10-10.38 13-.18 2.82 1.6 4.77 4.43 5.31a11.24 11.24 0 0 1-3.83.5c-3.22-.2-4.63-2.27-4.46-4.77.21-3.35 3.25-8.21 10.69-13.9-5.21.1-15.54.14-21 .08L51.44 31c5.76.16 18.13.14 24.42-.07ZM193.77 32.6c-7.73 5.35-10.18 10-10.38 13-.18 2.82 1.6 4.77 4.43 5.31a11.27 11.27 0 0 1-3.84.5c-3.21-.2-4.62-2.27-4.45-4.77.21-3.35 3.25-8.21 10.68-13.9-5.2.1-15.53.14-21 .08l-.07-1.82c5.76.16 18.13.14 24.42-.07ZM81.1 52.66V30.28h3l.06 19.81 1.93 1Zm18-18.93h-8.69v-1.67h11.91l-1.11 3.57Zm1 16.41a12.93 12.93 0 0 1-4 .76c-2.58 0-3.94-1.28-4.15-3.18a5.61 5.61 0 0 0 3.05.68 12.87 12.87 0 0 0 5.47-1.23ZM106.58 41.06h-.17l.11-3.36a48.57 48.57 0 0 0 6.15.51h.33a9.6 9.6 0 0 1-6.41 2.85m7.81-7.35c-2 0-5.36-.87-7.07-2.41l2.36-2.64a55.73 55.73 0 0 0 5.14 5.05h-.43m-.62 10.54c0 2.08-1.83 5.69-3.77 7.26l-2.18-2.8a51.06 51.06 0 0 0 6-4.53v.07m20.73 8h-17.28v-18.2h17.27ZM128.07 27a8.86 8.86 0 0 1-8.35 6.07 29.65 29.65 0 0 0 3.81-7.43Zm-.64 16.53h-6.79v7.51h10.45l.1-15.62h-10.52v6.76h6.79ZM149.91 48.33a4.13 4.13 0 0 1-4.39 4.44c-2.5 0-4.65-1.79-4.65-4 0-2.46 2.46-4.22 5.32-4.22a3 3 0 0 1 .61 0v-8.31H141v-1.5h5.76v-2.43h-3.32v-1.54h3.33v-4h3.08v4h2.51v1.53h-2.51v2.44h5.27v1.5h-5.22v9a12.11 12.11 0 0 1 4.12 3 41.57 41.57 0 0 0-4.11-.78Zm-3.11-1.07c-2.93 0-3.89 1.47-3.89 2.51a1.61 1.61 0 0 0 1.64 1.64c1 0 2.26-1 2.25-3.19ZM154.87 42c12.4-2.59 17.78-.21 18.46 2.86.52 2.38-1.85 5-6.15 5.92a15.44 15.44 0 0 1-2.06.3c3.46-2.11 4.74-4 4.42-5.43-.42-2-4.25-3.72-14.3-2ZM269.38 32.6c-7.73 5.35-10.18 10-10.38 13-.18 2.82 1.6 4.77 4.43 5.31a11.24 11.24 0 0 1-3.83.5c-3.22-.2-4.63-2.27-4.46-4.77.21-3.35 3.25-8.21 10.69-13.9-5.21.1-15.54.14-21 .08l-.08-1.82c5.76.16 18.13.14 24.42-.07ZM230.48 42c12.4-2.59 17.78-.21 18.46 2.86.52 2.38-1.85 5-6.15 5.92a15.44 15.44 0 0 1-2.06.3c3.46-2.11 4.74-4 4.42-5.43-.42-2-4.25-3.72-14.3-2ZM227.14 46.37c-1 1.89-4.47 2.67-8.59 2.66a37.68 37.68 0 0 1-13.33-2.47c-.43 1.68-2.95 4-4.48 4.46l-.64-3.26a22.61 22.61 0 0 0 3.9-1.95v-7.19h-6.8v-1.24h9.81v7.05a90.23 90.23 0 0 0 18.55 1.9Zm-23.48-18.3c.42 2.57.56 3.18 1.27 6.65-3-.33-4.32-2.26-4.46-5.66Zm8 14a36.53 36.53 0 0 0-4.37-7.78 42 42 0 0 0 4.17-9.75l3.79 1.59c-2 4.67-4.24 7.42-7.82 8.16 3 .19 5.89 3.13 7.24 5.21Zm6.76.12a42.59 42.59 0 0 0-5.09-8.09 41.45 41.45 0 0 0 4.82-9.54l3.75 1.76c-2.16 4.72-4.81 7.07-8.46 7.77 3.18.19 6.5 3.42 7.89 5.64Zm6.8.59a38.69 38.69 0 0 0-4.81-8.09 39.39 39.39 0 0 0 4.75-9.69l3.75 1.8c-2.12 4.75-4.7 7.14-8.32 7.85 2.86.25 5.89 3.09 7.75 5.49Z"/><path d="m296.94 57.1-2.12-4.1a40 40 0 0 0 9.79-3.23 31.27 31.27 0 0 1-7.67 7.32" style="fill:#a62e0c"/><path class="cls-4" d="M312.76 14.35h-33.67A99.12 99.12 0 0 1 270 55.84l-1 2.09h28a30.88 30.88 0 0 0 8.49-8.27c5.49-12.28 8.87-21.89 8.87-35.31ZM296.94 57.1l-2.12-4.1a40 40 0 0 0 9.79-3.23 31.27 31.27 0 0 1-7.67 7.32"/><path class="cls-4" d="M335.6 57.93h-30.81l.91-2.09a103.72 103.72 0 0 0 8.61-41.49h33.57c0 14.35-5.7 28.52-11.37 41.49Z"/><path class="cls-4" d="M371.56 57.93h-34l1-2.09a98.29 98.29 0 0 0 9.16-41.49h34a98.44 98.44 0 0 1-9.16 41.49Z"/><path style="fill:#dcad72" d="M274.5 8.86h110.38v3.41H274.5z"/><path class="cls-6" d="M274.5 8.86h17.3v3.41h-17.3zM293.21 8.86h17.3v3.41h-17.3zM311.91 8.86h17.3v3.41h-17.3zM330.62 8.86h17.29v3.41h-17.29zM349.33 8.86h17.3v3.41h-17.3zM368.04 8.86h17.3v3.41h-17.3z"/><path class="cls-4" d="M279.16 8.01h4.14v7.19h-4.14z"/><path class="cls-7" d="M283.64 15.54h-4.82V7.67h4.82Zm-4.14-.69h3.5v-6.5h-3.5Z"/><path class="cls-4" d="M295.39 8.01h4.14v7.19h-4.14z"/><path class="cls-7" d="M299.87 15.54h-4.82V7.67h4.82Zm-4.14-.69h3.46v-6.5h-3.46Z"/><path class="cls-4" d="M311.62 8.01h4.14v7.19h-4.14z"/><path class="cls-7" d="M316.1 15.54h-4.82V7.67h4.82Zm-4.1-.69h3.46v-6.5H312Z"/><path class="cls-4" d="M327.85 8.01h4.14v7.19h-4.14z"/><path class="cls-7" d="M332.33 15.54h-4.83V7.67h4.83Zm-4.14-.69h3.46v-6.5h-3.46Z"/><path class="cls-4" d="M344.08 8.01h4.14v7.19h-4.14z"/><path class="cls-7" d="M348.56 15.54h-4.83V7.67h4.83Zm-4.14-.69h3.46v-6.5h-3.46Z"/><path class="cls-4" d="M360.3 8.01h4.14v7.19h-4.14z"/><path class="cls-7" d="M364.79 15.54H360V7.67h4.83Zm-4.14-.69h3.45v-6.5h-3.45Z"/><path class="cls-4" d="M376.53 8.01h4.14v7.19h-4.14z"/><path class="cls-7" d="M381 15.54h-4.83V7.67H381Zm-4.14-.69h3.45v-6.5h-3.45ZM307 26.15h-17.63a63 63 0 0 1-3 8.16 46.45 46.45 0 0 0 10.45-8.14l2 1a7 7 0 0 1-.63.7 35.83 35.83 0 0 0 8.85 6.79 8.66 8.66 0 0 1-1.25.1c-3.1 0-6.73-1.86-9.4-5.1-3.39 3.22-7.09 5.12-10.25 5.34-2.7 5.76-5.85 9.68-8.51 10.11 1.39-1.73 3.09-5.35 4.63-9.33a7.38 7.38 0 0 1-3.47 1.91l-.18-2.69c1.21-.13 2.74-.36 4.16-.62.38-1 .73-2 1.07-3a6.27 6.27 0 0 1-.75 0 4.33 4.33 0 0 1-3.25-1.17l2.46-2.45a15.05 15.05 0 0 0 1.8 2.72c.67-2 1.27-4 1.69-5.64H295l.67-3.45h2.9l-.67 3.45h9.34Zm-18.59 18.78a5.75 5.75 0 0 1-3.27 1.26 4.08 4.08 0 0 1-1.61-.34 20.24 20.24 0 0 0 3.28-2.54Zm3.16-6.43H290l-.19 1H291l-.17.89h-1.23l-.35 1.79h-2.07l1.44-7.41h6.64l-1.55 8.16-2.91-1.06 1.3-.8 1-5.36h-2.63l-.37 1.91h1.61Zm7.43 7.62c-.27 1.4-2.17 2.34-4.17 2.35-2.56 0-5.32-1.48-5-5.47h2.25a3.61 3.61 0 0 0 3.74 3.73 4.94 4.94 0 0 0 3.18-1.18 1.82 1.82 0 0 1 0 .57m-.39-12.37h-5.71l.19-1h5.71Zm-1.52 11.78a2.91 2.91 0 0 1-2.86-2.08l2-.84a18.93 18.93 0 0 0 1.16 2.89h-.34m1-5.7h-2l.95-4h2Zm3 3.07-3.34-1.16 1.56-.89 1.19-6.12h2.12Zm1.19 2.69a3.69 3.69 0 0 1-2.8-1.06l2-1.66a13.48 13.48 0 0 0 2.45 2.36 4.1 4.1 0 0 1-1.63.36M325.36 28.29c-.25 1.08-.54 2.34-.81 3.65-1.92 9.34-2.07 14.06 3.06 14.06a17.92 17.92 0 0 0 4.24-.7 7 7 0 0 1-5.32 2.39c-3 0-5.87-1.82-5.71-6.89a74.08 74.08 0 0 1 1.48-10.6c.14-.71.27-1.35.42-1.91ZM360.38 30.63h-4.12c-.52 1.73-1 3.3-1.58 4.71h4.86l-2.18 11.08-4.26-.9 2-1.08 1.61-8h-2.43c-2.1 5.09-4.43 8.2-6.94 9a77 77 0 0 0 6.17-14.8h-3.8l.2-1h3.87l.84-4h2.73l-.78 4h4Zm7.77-5.12A26.09 26.09 0 0 1 366.6 28h8.55l-.21 1h-9.17c-1.8 2.1-3.74 3.27-5.58 3.27a42.81 42.81 0 0 0 5.07-8.18ZM371.62 44a5.39 5.39 0 0 1-5.28-4l-1.26 6.4h-2.71l1.76-8.91a13.6 13.6 0 0 1-3 .39 8.47 8.47 0 0 1-1.28-.09c3.62-1.48 6.81-3.87 10.3-6.54l2.11 2.4a24 24 0 0 1-5.26 2.93l-.65 3.42 2.34-1.33a14.41 14.41 0 0 0 .87 1.71 17.16 17.16 0 0 0 2.34-2.47l1.77 1.27a5.5 5.5 0 0 1-3.58 1.82h-.17a8.3 8.3 0 0 0 2.81 3 7.19 7.19 0 0 1-1.11.11"/></g></g></svg>